<svg xmlns="http://www.w3.org/2000/svg" viewBox="0 0 32 32" fill="none">
  <defs>
    <linearGradient id="goldFill" x1="0" y1="0" x2="0" y2="1">
      <stop offset="0%" stop-color="#f0c030"/>
      <stop offset="50%" stop-color="#d4a017"/>
      <stop offset="100%" stop-color="#b8860b"/>
    </linearGradient>
    <clipPath id="circleClip">
      <circle cx="16" cy="16" r="13.5"/>
    </clipPath>
  </defs>

  <path d="M16,0 L14.2,8.4 L17.8,10.2 L13,16.8 L17.4,18.8 L15.4,32 L0,32 L0,0 Z"
        clip-path="url(#circleClip)" fill="#1a1a1a"/>
  <path d="M16,0 L14.2,8.4 L17.8,10.2 L13,16.8 L17.4,18.8 L15.4,32 L32,32 L32,0 Z"
        clip-path="url(#circleClip)" fill="url(#goldFill)"/>
  <circle cx="16" cy="16" r="14.5" stroke="#b8860b" stroke-width="1.8" fill="none"
          stroke-dasharray="87 5" stroke-dashoffset="8" stroke-linecap="round"/>

  <g transform="rotate(8, 16, 16)">
    <g transform="translate(8.2, 7) scale(0.16)">
      <path d="M0,0 L44,98 L56,98 L84,42 L76,38 L98,0 Z M18,0 L64,0 L48,38 L56,42 L48,92 Z"
            fill="#ffffff" fill-rule="evenodd"/>
    </g>
  </g>
</svg>
